<?xml version="1.0" encoding="UTF-8" standalone="no"?>
<!DOCTYPE svg PUBLIC "-//W3C//DTD SVG 1.1//EN" "http://www.w3.org/Graphics/SVG/1.1/DTD/svg11.dtd">
<svg width="100%" height="100%" viewBox="0 0 563 149" version="1.1" xmlns="http://www.w3.org/2000/svg" xmlns:xlink="http://www.w3.org/1999/xlink" xml:space="preserve" xmlns:serif="http://www.serif.com/" style="fill-rule:evenodd;clip-rule:evenodd;stroke-linejoin:round;stroke-miterlimit:2;">
    <g transform="matrix(1,0,0,1,-2.976,-1.31575)">
        <g transform="matrix(1.25,0,0,1.25,-417.039,-53.323)">
            <g transform="matrix(1.91443,0,0,1.91443,-307.261,-39.9709)">
                <path d="M436.008,85.777L437.598,85.777C440.062,85.777 441.082,87.105 441.082,88.93C441.082,91.395 439.684,92.578 437.453,92.7L436.695,92.723L436.695,94.238L437.434,94.238C441.152,94.238 443.547,91.703 443.547,88.906C443.547,85.684 441.391,84.117 437.883,84.117L433.711,84.117L433.711,100.711L436.008,100.711L436.008,85.777" style="fill:rgb(138,138,140);fill-rule:nonzero;"/>
                <path d="M449.45,84.117L442.691,100.711L444.921,100.711L446.699,95.828L453.027,95.828L454.734,100.711L457.391,100.711L451.203,84.117L449.449,84.117L449.45,84.117ZM447.34,94.168C448.242,91.871 449.117,89.57 449.969,86.582L450.019,86.582C450.848,89.57 451.652,91.872 452.484,94.168L447.34,94.168" style="fill:rgb(138,138,140);"/>
                <path d="M468.152,85.492C467.23,84.449 465.782,83.836 464.055,83.836C461.469,83.836 459.312,85.516 459.312,87.746C459.312,90.094 460.852,91.109 462.227,92.18C463.578,93.172 466.067,94.523 466.067,96.61C466.067,98.46 464.812,99.336 463.176,99.336C461.613,99.336 460.546,98.578 459.574,97.891L458.554,99.266C459.738,100.426 461.637,100.996 463.223,100.996C465.879,100.996 468.367,99.289 468.367,96.656C468.367,94.523 467.039,93.008 464.766,91.348C462.633,89.808 461.613,88.93 461.613,87.746C461.613,86.465 462.535,85.492 464.195,85.492C465.191,85.492 466.258,86.086 467.063,86.68L468.153,85.492M480.477,85.492C479.555,84.449 478.105,83.836 476.375,83.836C473.793,83.836 471.637,85.516 471.637,87.746C471.637,90.094 473.176,91.109 474.551,92.18C475.902,93.172 478.391,94.523 478.391,96.61C478.391,98.46 477.137,99.336 475.5,99.336C473.934,99.336 472.867,98.578 471.895,97.891L470.879,99.266C472.062,100.426 473.961,100.996 475.547,100.996C478.203,100.996 480.691,99.289 480.691,96.656C480.691,94.523 479.363,93.008 477.09,91.348C474.953,89.808 473.934,88.93 473.934,87.746C473.934,86.465 474.859,85.492 476.52,85.492C477.516,85.492 478.582,86.086 479.387,86.68L480.477,85.492" style="fill:rgb(138,138,140);fill-rule:nonzero;"/>
                <path d="M488.605,84.117L481.852,100.711L484.078,100.711L485.855,95.828L492.187,95.828L493.891,100.711L496.547,100.711L490.359,84.117L488.605,84.117ZM486.496,94.168C487.398,91.871 488.273,89.57 489.129,86.582L489.176,86.582C490.004,89.57 490.809,91.872 491.641,94.168L486.496,94.168" style="fill:rgb(138,138,140);"/>
                <path d="M498.207,84.117L498.207,94.266C498.207,98.531 500.082,100.996 504.75,100.996C508.758,100.996 511.055,98.34 511.055,94.617L511.055,84.117L508.898,84.117L508.898,94.57C508.898,96.941 507.855,99.406 504.75,99.406C501.79,99.406 500.508,97.606 500.508,94.168L500.508,84.118L498.207,84.118M433.473,62.082L433.473,72.227C433.473,76.492 435.343,78.961 440.016,78.961C444.02,78.961 446.32,76.305 446.32,72.582L446.32,62.082L444.164,62.082L444.164,72.535C444.164,74.906 443.121,77.371 440.016,77.371C437.055,77.371 435.773,75.571 435.773,72.133L435.773,62.082L433.473,62.082M464.602,62.082L462.707,62.082L462.707,75.309L462.657,75.309C461.543,73.649 455.43,66.395 451.777,62.082L450.07,62.082L450.07,78.676L451.965,78.676L451.965,65.473L452.015,65.473C453.012,66.918 459.195,74.359 462.801,78.676L464.601,78.676L464.601,62.082M468.586,78.676L470.886,78.676L470.886,62.082L468.586,62.082L468.586,78.676ZM480.437,78.676L487.051,62.129L484.988,61.844C483.305,66.371 481.598,70.922 479.938,76.02L479.891,76.02C478.305,70.922 476.715,66.371 475.101,61.844L472.758,62.27L478.898,78.676L480.438,78.676M497.102,62.082L488.922,62.082L488.922,78.676L498.122,78.676L498.122,77.016L491.222,77.016L491.222,70.758L496.984,70.758L496.984,69.098L491.223,69.098L491.223,63.738L497.102,63.738L497.102,62.082" style="fill:rgb(138,138,140);fill-rule:nonzero;"/>
                <path d="M503.004,63.738L504.973,63.738C506.512,63.738 507.789,64.523 507.789,66.563C507.789,67.961 507.246,70.141 504.309,70.141L503.004,70.141L503.004,63.738ZM500.704,78.676L503.004,78.676L503.004,71.8L505.445,71.8L509.285,78.956L511.609,78.246L507.484,71.183C509.07,70.163 510.258,68.788 510.258,66.347C510.258,63.479 508.148,62.081 505.445,62.081L500.703,62.081L500.703,78.675" style="fill:rgb(138,138,140);"/>
                <path d="M522.75,63.457C521.824,62.414 520.379,61.797 518.648,61.797C516.062,61.797 513.906,63.48 513.906,65.707C513.906,68.055 515.449,69.074 516.824,70.141C518.176,71.137 520.664,72.488 520.664,74.574C520.664,76.422 519.406,77.301 517.774,77.301C516.207,77.301 515.141,76.539 514.168,75.851L513.148,77.227C514.336,78.391 516.23,78.961 517.82,78.961C520.477,78.961 522.965,77.254 522.965,74.621C522.965,72.488 521.637,70.973 519.359,69.313C517.227,67.77 516.207,66.895 516.207,65.707C516.207,64.426 517.133,63.457 518.789,63.457C519.789,63.457 520.855,64.051 521.66,64.641L522.75,63.457M526.21,78.676L528.508,78.676L528.508,62.082L526.211,62.082L526.211,78.676L526.21,78.676ZM538.223,78.676L538.223,63.738L543.559,63.738L543.559,62.082L530.617,62.082L530.617,63.738L535.926,63.738L535.926,78.676L538.223,78.676" style="fill:rgb(138,138,140);fill-rule:nonzero;"/>
                <path d="M548.535,57.2C547.945,57.2 547.352,57.816 547.352,58.406C547.352,59.046 547.922,59.641 548.535,59.641C549.199,59.641 549.746,59.071 549.746,58.406C549.734,57.747 549.195,57.21 548.536,57.199L548.535,57.2ZM553.305,57.2C552.711,57.2 552.117,57.816 552.117,58.406C552.117,59.046 552.687,59.641 553.305,59.641C553.965,59.641 554.512,59.071 554.512,58.406C554.512,57.766 553.965,57.199 553.305,57.199L553.305,57.2ZM550.34,62.082L543.586,78.676L545.812,78.676L547.59,73.789L553.918,73.789L555.625,78.676L558.281,78.676L552.094,62.082L550.34,62.082ZM548.23,72.132C549.129,69.832 550.008,67.532 550.86,64.547L550.906,64.547C551.738,67.531 552.543,69.832 553.371,72.133L548.231,72.133" style="fill:rgb(138,138,140);"/>
                <path d="M565.914,78.676L565.914,63.738L571.25,63.738L571.25,62.082L558.305,62.082L558.305,63.738L563.617,63.738L563.617,78.676L565.914,78.676M378.457,70.922L378.453,43.746L401.422,52.086L401.422,62.21L403.668,62.21L403.668,52.027L426.496,43.711L426.496,100.648L424.196,98.348L424.196,46.996L405.969,53.636L405.969,68.871L399.121,68.871L399.121,53.695L380.754,47.027L380.758,70.73L378.457,70.922" style="fill:rgb(138,138,140);fill-rule:nonzero;"/>
                <path d="M412.945,105.605L425.688,105.605C416.234,96.852 407.523,84.383 421.699,82.043L420.133,81.48C405.484,83.473 407.234,94.59 412.945,105.605M354.418,91.301L367.484,91.301C374.926,80.148 388.582,77.391 405.762,76.215L404.203,75.648C383.227,75.902 362.633,80.664 354.418,91.301" style="fill:rgb(248,151,28);fill-rule:nonzero;"/>
                <path d="M373.5,96.047L386.629,96.047C388.512,85.223 397.215,79.817 411.117,78.176L409.57,77.617C391.426,79.207 376.645,84.453 373.5,96.047" style="fill:rgb(248,151,28);fill-rule:nonzero;"/>
                <path d="M392.95,100.707L405.285,100.805C401.973,91.004 402.91,81.719 416.395,80.085L414.816,79.512C400.136,80.91 392.176,89.543 392.949,100.707M336.012,86.512C344.234,79.578 369.722,73.562 398.632,73.562L400.367,74.222C372.602,74.523 359.757,79.758 349.07,86.578L336.012,86.512" style="fill:rgb(248,151,28);fill-rule:nonzero;"/>
            </g>
        </g>
    </g>
</svg>
